<mxfile host="app.diagrams.net" modified="2023-04-18T16:00:23.231Z" agent="Mozilla/5.0 (Windows NT 10.0; Win64; x64) AppleWebKit/537.36 (KHTML, like Gecko) Chrome/112.0.0.0 Safari/537.36 Edg/112.0.1722.48" version="21.1.8" etag="av-qGm7Is5vh1879zutj" type="github">
  <diagram name="第 1 页" id="-nQyAHczUaz9PfvaADoO">
    <mxGraphModel>
      <root>
        <mxCell id="0" />
        <mxCell id="1" parent="0" />
      </root>
    </mxGraphModel>
  </diagram>
</mxfile>
